HIERARCHY
ROOT Hips
{
     OFFSET 31.07450 94.26180 13.94850
     CHANNELS 6 Xposition Yposition Zposition Zrotation Xrotation Yrotation
     JOINT Spine
     {
          OFFSET 0.00000 11.89050 -0.00000
          CHANNELS 3 Zrotation Xrotation Yrotation
          JOINT Spine1
          {
               OFFSET 0.00000 25.65740 0.12766
               CHANNELS 3 Zrotation Xrotation Yrotation
               JOINT HEad
               {
                    OFFSET 0.00000 8.73416 0.01134
                    CHANNELS 3 Zrotation Xrotation Yrotation
                    End Site
                    {
                         OFFSET -0.29000 12.77420 2.51395
                    }
               }
               JOINT LeftShoulder1
               {
                    OFFSET 8.99000 -0.36225 -0.22000
                    CHANNELS 3 Zrotation Xrotation Yrotation
                    JOINT LeftArm
                    {
                         OFFSET 10.28270 -0.00338 0.32212
                         CHANNELS 3 Zrotation Xrotation Yrotation
                         JOINT LeftForeArm
                         {
                              OFFSET 32.76690 0.09914 -1.42434
                              CHANNELS 3 Zrotation Xrotation Yrotation
                              JOINT LeftHand
                              {
                                   OFFSET 27.56430 0.08536 1.02216
                                   CHANNELS 3 Zrotation Xrotation Yrotation
                                   End Site
                                   {
                                        OFFSET 16.74430 -0.60000 1.50291
                                   }
                              }
                         }
                    }
               }
               JOINT RightShoulder
               {
                    OFFSET -8.99000 -0.36225 -0.22000
                    CHANNELS 3 Zrotation Xrotation Yrotation
                    JOINT RightArm
                    {
                         OFFSET -10.28270 -0.00338 0.32212
                         CHANNELS 3 Zrotation Xrotation Yrotation
                         JOINT RightForeArm
                         {
                              OFFSET -32.89710 0.09914 -1.42434
                              CHANNELS 3 Zrotation Xrotation Yrotation
                              JOINT RightHand
                              {
                                   OFFSET -27.49210 0.08536 1.02216
                                   CHANNELS 3 Zrotation Xrotation Yrotation
                                   End Site
                                   {
                                        OFFSET -16.63120 -0.60000 1.50291
                                   }
                              }
                         }
                    }
               }
          }
     }
     JOINT LeftUpLeg
     {
          OFFSET 8.94580 -8.66707 0.10165
          CHANNELS 3 Zrotation Xrotation Yrotation
          JOINT LeftLeg
          {
               OFFSET 0.00000 -44.42270 1.37270
               CHANNELS 3 Zrotation Xrotation Yrotation
               JOINT LeftFoot
               {
                    OFFSET -0.25355 -42.09240 -1.46059
                    CHANNELS 3 Zrotation Xrotation Yrotation
                    JOINT LeftToes
                    {
                         OFFSET -0.04000 -4.41509 8.49910
                         CHANNELS 3 Zrotation Xrotation Yrotation
                         End Site
                         {
                              OFFSET 0.08000 -0.04745 9.77979
                         }
                    }
               }
          }
     }
     JOINT RightUpLeg
     {
          OFFSET -8.94580 -8.66707 0.10165
          CHANNELS 3 Zrotation Xrotation Yrotation
          JOINT RightLeg
          {
               OFFSET 0.00000 -44.42270 1.37270
               CHANNELS 3 Zrotation Xrotation Yrotation
               JOINT RightFoot
               {
                    OFFSET 0.25355 -42.09240 -1.46059
                    CHANNELS 3 Zrotation Xrotation Yrotation
                    JOINT RightToes
                    {
                         OFFSET 0.04000 -4.41509 8.49910
                         CHANNELS 3 Zrotation Xrotation Yrotation
                         End Site
                         {
                              OFFSET -0.08000 -0.13745 9.77979
                         }
                    }
               }
          }
     }
}
MOTION
Frames: 20
Frame Time: 0.01667
27.69330 93.11750 3.57820 0.87651 -11.71210 -4.15757 -5.22775 14.02440 8.00183 -11.02000 26.71860 18.83510 9.31204 -11.75230 -30.27580 -0.00000 0.00000 -0.00000 -104.58600 -39.33620 -76.85980 -47.92750 62.14730 -90.53010 11.60440 10.00940 5.52403 -25.43500 -0.68135 2.75175 70.45900 -8.26900 111.19900 -29.48000 -0.46123 11.49350 42.56390 6.72804 -12.38570 11.88840 -14.59630 -16.09570 -20.07910 9.66418 50.47090 -1.38305 23.34000 0.21691 2.02998 -28.75780 -68.32050 -33.35280 19.70280 19.24710 43.43930 9.74399 -33.09160 -25.77110 6.21879 3.09037 4.24363 -46.66630 0.56268 
27.74880 93.11100 3.63573 0.31986 -12.01870 -5.25552 -5.48143 14.13980 7.50618 -10.90580 26.92490 17.82570 8.70631 -10.99870 -28.06450 -0.00000 0.00000 -0.00000 -100.92100 -39.32060 -73.45090 -40.52860 60.64300 -99.09060 11.89670 10.28950 8.40079 -23.15810 -0.66168 3.20933 71.03240 -7.04026 107.69600 -27.82740 -0.96922 24.86100 39.01120 9.49303 -5.46534 12.69750 -15.18330 -16.36210 -21.37980 11.18700 53.13080 -0.43095 23.36410 -0.03995 1.66954 -29.61340 -68.00490 -33.07300 19.70200 19.71790 42.88860 9.81095 -32.35220 -25.87930 6.64520 3.20410 4.47261 -47.29610 1.07233 
27.94060 93.23660 3.78573 -0.42288 -12.14100 -7.24411 -5.89578 14.26060 6.94486 -10.84820 27.10990 16.62110 7.55604 -10.63040 -25.46480 -0.00000 0.00000 -0.00000 -98.55560 -40.17050 -71.26280 -36.61100 59.65780 -104.19100 13.28300 10.52990 10.16410 -20.73350 -0.63175 3.77467 74.42660 -5.41020 104.86000 -23.71650 -0.80670 41.34630 34.69560 9.84987 -4.48249 13.88950 -15.97260 -16.30450 -23.00840 13.05570 56.31430 0.53641 23.66020 -0.30431 1.30480 -30.45320 -67.84770 -32.99160 19.42810 20.14020 42.22940 9.54707 -31.34720 -25.62250 7.11000 3.27823 4.79427 -47.25710 2.10223 
28.25160 93.48010 4.02510 -1.30604 -12.01900 -10.18520 -6.44110 14.33930 6.41828 -10.74320 27.18410 15.38610 6.05130 -10.74830 -22.57320 -0.00000 0.00000 -0.00000 -97.67610 -42.10080 -70.50880 -34.48660 59.60350 -107.38400 15.29860 10.77650 11.30550 -18.18800 -0.53014 3.98314 81.17240 -3.04852 102.99000 -18.43470 4.16398 57.89000 31.82120 9.26151 -6.54082 15.49510 -16.91640 -15.86710 -24.84860 15.23700 59.71080 1.21938 24.26240 -0.50065 1.04704 -31.04530 -67.74540 -33.17200 18.88660 20.52230 41.46890 8.82908 -29.77520 -25.17000 7.66388 3.34319 5.08011 -46.63040 3.27771 
28.65470 93.79540 4.36592 -2.26042 -11.66080 -13.98520 -7.07915 14.34940 5.92329 -10.50880 27.11860 14.09610 4.29207 -11.19700 -19.09350 -0.00000 0.00000 -0.00000 -98.36690 -45.17290 -71.43760 -32.86770 60.31370 -109.83300 17.09580 11.06370 12.55590 -15.33090 -0.35494 3.65835 88.79420 -0.04620 100.85600 -14.84750 12.26720 72.01020 30.22850 9.05579 -7.41314 17.46620 -17.81620 -15.06850 -26.72020 17.59210 63.01810 1.49061 24.97160 -0.58973 1.00190 -31.17400 -67.61650 -33.58770 18.08170 20.88260 40.62600 7.74735 -27.46020 -24.61060 8.38456 3.42538 5.22115 -45.60720 4.22153 
29.12760 94.12590 4.83529 -3.24310 -11.11560 -18.50560 -7.72069 14.29050 5.39697 -10.11400 26.95540 12.63390 2.28491 -11.81430 -14.67470 -0.00000 0.00000 -0.00000 -100.87500 -49.26990 -74.54450 -31.60770 61.47390 -111.55500 17.99620 11.39810 14.35230 -12.15500 -0.16434 3.04576 94.53800 2.90218 97.52040 -13.48870 19.42230 83.28530 29.03290 9.58760 -5.51621 19.75030 -18.32600 -14.10000 -28.52280 19.72800 66.12640 1.42154 25.33250 -0.57685 1.22710 -30.72320 -67.38910 -34.13690 16.98650 21.16610 39.71560 6.56900 -24.48020 -23.96130 9.32598 3.53461 5.22636 -44.42860 4.84567 
29.65200 94.42150 5.45678 -4.24930 -10.42910 -23.56110 -8.22777 14.16360 4.77470 -9.54717 26.73990 10.89380 0.08138 -12.51890 -9.24868 -0.00000 0.00000 -0.00000 -106.11300 -54.12070 -80.90570 -31.82180 63.07880 -111.13100 17.91020 11.70520 16.45830 -8.96539 -0.01531 2.64707 97.37400 5.02419 93.22620 -13.01580 23.87450 91.98440 27.49950 10.45180 -2.09422 22.23650 -18.12240 -13.21120 -30.14190 21.20420 68.86250 1.10202 24.94020 -0.47879 1.64131 -29.85910 -67.05300 -34.67160 15.59240 21.24850 38.76790 5.57392 -21.12940 -23.20370 10.43810 3.65128 5.15167 -43.21720 5.24813 
30.21110 94.63160 6.22751 -5.26881 -9.64203 -28.86890 -8.49140 13.96650 4.03916 -8.82261 26.48290 8.86885 -2.14571 -13.25150 -3.12478 -0.00000 0.00000 -0.00000 -115.91400 -58.88630 -92.44900 -35.15990 65.25490 -106.26900 17.29470 11.88470 18.15530 -6.07295 0.09491 2.85678 97.84620 5.92592 88.66750 -12.49820 26.19360 98.62690 25.77930 11.11110 0.90161 24.68110 -17.08760 -12.65400 -31.36110 21.76540 70.82850 0.55173 23.83760 -0.31043 1.99102 -29.13150 -66.66400 -35.06260 13.93650 21.01010 37.85870 4.99743 -17.83820 -22.31570 11.54710 3.72993 5.02304 -41.98440 5.48848 
30.80280 94.71530 7.11846 -6.28250 -8.80302 -34.05540 -8.44231 13.71510 3.20627 -7.99229 26.19150 6.66934 -4.13163 -13.95690 3.16385 -0.00000 0.00000 -0.00000 -130.85699 -61.55660 -110.01400 -42.37450 67.40160 -95.18380 16.75470 11.90210 18.74770 -3.47981 0.21143 3.71044 97.08300 5.53091 84.30730 -11.88280 27.50400 103.89100 24.38890 11.40670 2.54933 26.78650 -15.35310 -12.68180 -31.98020 21.36290 71.63480 -0.18488 22.50220 -0.10252 1.99904 -29.20230 -66.17100 -35.27670 12.19540 20.47500 37.10870 4.78888 -15.11980 -21.43950 12.57670 3.77817 4.87476 -40.89680 5.57375 
31.43000 94.63620 8.07327 -7.24252 -7.99967 -38.76150 -8.16461 13.46680 2.32344 -7.14859 25.92870 4.44135 -5.60728 -14.61370 9.14024 -0.00000 0.00000 -0.00000 -145.23399 -60.41010 -128.36400 -51.04610 68.16660 -79.06980 16.72510 11.78130 17.90960 -1.01291 0.37254 4.93210 95.83030 4.15381 80.34560 -11.39100 28.32770 108.11000 23.51650 11.47970 3.14925 28.30970 -13.26940 -13.33200 -31.98470 20.28020 71.30670 -0.98896 21.37870 0.10551 1.59961 -30.28220 -65.45640 -35.40960 10.57890 19.84050 36.67310 4.73679 -13.54210 -20.91010 13.55330 3.86707 4.76826 -40.32440 5.50068 
32.09170 94.39350 9.02687 -8.12150 -7.33446 -42.72110 -7.83487 13.30030 1.42257 -6.35343 25.80130 2.25370 -6.41693 -15.24150 14.56020 -0.00000 0.00000 -0.00000 -151.38100 -56.76700 -140.33900 -55.38010 66.65510 -62.65240 17.34220 11.54010 15.73460 1.37487 0.58282 6.18185 93.65860 2.94097 76.77330 -11.31430 27.61610 111.17400 23.23540 11.53600 3.50889 29.17470 -11.27850 -14.28110 -31.59270 19.13050 70.48520 -1.68556 20.50480 0.27379 1.00854 -31.87220 -64.65330 -35.57090 9.29257 19.32640 36.62190 4.61928 -13.44030 -20.99710 14.45270 4.05519 4.71036 -40.40180 5.21100 
32.77970 94.02630 9.92500 -8.91820 -6.87058 -45.81390 -7.63210 13.26600 0.51625 -5.60312 25.87760 0.08625 -6.60578 -15.89970 19.38180 -0.00000 0.00000 -0.00000 -79.63940 -58.07640 -91.13580 -18.69970 27.13100 -75.97110 12.80240 10.99270 14.82910 3.58827 0.81775 7.24333 91.57330 2.19424 73.68690 -11.48810 26.43350 113.23600 23.08350 11.65820 4.14849 29.47450 -9.79147 -15.02570 -31.19880 18.62410 70.17800 -2.12661 19.63570 0.37088 0.45286 -33.33050 -64.16470 -35.78460 8.43644 18.98350 36.86290 4.42599 -14.68420 -21.70250 15.10540 4.32437 4.63777 -40.86150 4.63261 
33.48230 93.59840 10.74430 -9.63548 -6.58195 -48.10140 -7.64718 13.35660 -0.37660 -4.84036 26.13000 -2.07959 -6.40914 -16.68450 23.66260 -0.00000 0.00000 -0.00000 -25.87890 -35.48650 -63.73530 7.80533 -29.67440 -47.36030 -1.30373 9.85668 6.53920 5.50934 1.04121 8.00708 89.89640 2.12153 71.09860 -11.77390 25.25930 114.55100 22.88960 11.83930 5.09861 29.40830 -9.05241 -15.12080 -31.15850 19.22470 71.07570 -2.27133 18.61230 0.39110 -0.04937 -34.47300 -64.31100 -36.01010 7.98568 18.74710 37.21370 4.19984 -16.73830 -22.88160 15.45060 4.63863 4.51149 -41.42050 3.80712 
34.17860 93.17050 11.50140 -10.26330 -6.37730 -49.80180 -7.87997 13.52940 -1.20314 -3.99490 26.47290 -4.17986 -6.15197 -17.68980 27.47390 -0.00000 0.00000 -0.00000 -4.62426 -23.69760 -60.69050 13.95670 -58.08730 -18.77010 -9.81320 10.73340 -4.89979 7.00474 1.21430 8.41966 88.54760 2.78593 68.93850 -12.08020 24.16530 115.40000 22.68150 12.02580 6.09706 29.17560 -9.04044 -14.29990 -31.52880 20.98440 73.10540 -2.23445 17.48710 0.36755 -0.56726 -35.40280 -65.11770 -36.21610 7.82919 18.59460 37.51790 3.87671 -18.95050 -24.35190 15.66360 4.99414 4.35528 -42.00020 2.89179 
34.83690 92.78820 12.25000 -10.78840 -6.17502 -51.17420 -8.25548 13.73250 -1.87776 -3.04699 26.81540 -6.04303 -6.13676 -18.90110 30.79960 -0.00000 0.00000 -0.00000 2.46117 -25.04850 -60.90700 5.93178 -65.30360 -4.75150 -16.27070 12.05140 -10.30320 7.95833 1.31579 8.55322 87.45580 3.88279 67.12060 -12.35690 23.19910 115.98900 22.50190 12.17560 6.91778 28.89160 -9.49079 -12.61990 -32.05550 23.55520 75.70490 -2.12479 16.41860 0.33027 -1.15893 -36.27740 -66.40200 -36.32510 7.51836 18.44760 37.73750 4.04340 -20.99850 -25.74140 15.66090 5.28920 4.20935 -42.58950 2.05276 
35.42140 92.47940 13.05480 -11.19860 -5.96741 -52.37580 -8.66143 13.90990 -2.29645 -2.08214 27.07570 -7.40764 -6.57860 -20.08120 33.45510 -0.00000 0.00000 -0.00000 3.33198 -29.39490 -61.51940 5.42063 -66.14890 6.02032 -21.32230 12.73980 -10.49240 8.41017 1.36440 8.61371 86.59430 4.75181 65.50620 -12.57080 22.42680 116.38800 22.34140 12.29230 7.57671 28.55500 -10.06280 -10.54410 -32.46730 26.35490 78.34290 -1.93278 15.49880 0.28019 -1.86792 -37.24610 -67.91810 -36.47440 7.20263 18.45020 37.82730 4.19732 -22.55620 -26.83380 15.81250 5.55975 4.08788 -43.10410 1.37353 
35.90040 92.25740 13.94720 -11.47770 -5.82132 -53.36860 -8.98771 14.01600 -2.38017 -1.27011 27.20730 -8.02043 -7.51107 -20.83480 35.15240 -0.00000 0.00000 -0.00000 1.94611 -31.44510 -61.59790 5.77770 -67.51940 9.34717 -22.86770 12.96250 -10.58310 8.62287 1.39845 8.73353 85.94860 4.64245 63.94070 -12.63320 22.00660 116.58100 22.09200 12.40960 8.29700 28.08270 -10.52250 -8.74349 -32.72120 28.80330 80.71000 -1.65658 14.64400 0.21747 -2.63760 -38.26590 -69.39200 -36.76180 6.93366 18.64160 37.81910 4.31176 -23.64690 -27.45840 16.16960 5.78378 3.96741 -43.45220 0.78892 
36.25070 92.12740 14.89680 -11.60240 -5.81467 -53.92760 -9.14258 14.03850 -2.14275 -0.76182 27.21900 -7.80083 -8.65301 -20.87590 35.70600 -0.00000 0.00000 -0.00000 0.56511 -29.58740 -60.41110 6.40574 -70.63750 7.23486 -21.71460 13.13160 -12.21780 8.97985 1.43941 8.79504 85.41470 3.09994 62.39630 -12.39440 22.14690 116.52800 21.57800 12.54940 9.30900 27.39120 -10.81430 -7.75272 -32.93550 30.48700 82.63720 -1.36032 13.69040 0.15454 -3.28461 -39.10120 -70.51450 -37.22060 6.81970 19.02970 37.74960 4.38602 -24.47210 -27.65390 16.74990 5.97272 3.80908 -43.67340 0.12834 
36.46260 92.09340 15.82160 -11.54170 -5.97306 -53.75150 -9.06365 13.98700 -1.70988 -0.59884 27.12740 -6.91957 -9.50811 -20.24340 35.13320 -0.00000 0.00000 -0.00000 -0.65179 -24.92030 -58.62850 3.81839 -74.48460 -2.82495 -18.72990 13.04830 -14.28460 9.76807 1.47934 8.53249 84.75930 0.12502 61.00390 -11.75950 22.92440 116.19000 20.69020 12.70260 10.69870 26.45660 -11.01950 -7.76498 -33.15350 31.21580 84.00170 -1.07064 12.57810 0.09718 -3.65231 -39.57170 -71.10100 -37.77630 6.94792 19.59710 37.63160 4.44534 -25.27650 -27.58320 17.54980 6.15770 3.58705 -43.87420 -0.74428 
36.53920 92.15240 16.62570 -11.25320 -6.26979 -52.58280 -8.75586 13.86180 -1.25486 -0.71198 26.90420 -5.71845 -9.74409 -19.24860 33.53820 -0.00000 0.00000 -0.00000 -3.11008 -20.52970 -57.49390 -6.13296 -76.32910 -24.45040 -15.01470 12.55240 -15.09140 10.97850 1.48862 7.80979 83.77000 -4.00957 59.90090 -10.81340 24.16110 115.53200 19.50480 12.85230 12.43020 25.29260 -11.28110 -8.66130 -33.22310 31.03070 84.71950 -0.71282 11.43300 0.03406 -3.79053 -39.75000 -71.30730 -38.31220 7.35956 20.30470 37.47240 4.52242 -26.21030 -27.38100 18.51250 6.35103 3.28659 -44.03260 -1.87322 
